<?xml version="1.0" encoding="UTF-8"?>
<svg version="1.1" xmlns="http://www.w3.org/2000/svg" width="501" height="392">
<path d="M0 0 C165.33 0 330.66 0 501 0 C501 129.36 501 258.72 501 392 C335.67 392 170.34 392 0 392 C0 262.64 0 133.28 0 0 Z " fill="#FEFEFE" transform="translate(0,0)"/>
<path d="M0 0 C5.60631118 0.54230984 10.07723178 2.05258703 15.1875 4.375 C15.88552734 4.67921875 16.58355469 4.9834375 17.30273438 5.296875 C24.65418165 8.57040243 24.65418165 8.57040243 27 11 C27.42578125 13.375 27.42578125 13.375 27.3125 16 C27.27576172 17.299375 27.27576172 17.299375 27.23828125 18.625 C27 21 27 21 26 24 C27.155 23.505 28.31 23.01 29.5 22.5 C33.74331485 20.96105131 37.53695886 19.7954122 42 21 C47.60439162 24.52484 51.42543747 29.52645113 55 35 C54.67 35.66 54.34 36.32 54 37 C52.046875 36.47916667 50.09375 35.95833333 48.140625 35.4375 C45.71098139 34.86650651 45.71098139 34.86650651 42 35 C42.56267578 35.74830078 42.56267578 35.74830078 43.13671875 36.51171875 C51.03011751 47.58633616 55.43078542 60.42783173 55.125 74 C55.11597656 74.77472656 55.10695313 75.54945313 55.09765625 76.34765625 C55.07439388 78.23190843 55.0385364 80.11599832 55 82 C55.78375 81.95875 56.5675 81.9175 57.375 81.875 C60 82 60 82 62 84 C62.55114908 87.38231489 62.55521686 90.61822461 62 94 C58.84504252 96.97968206 57.37295237 97 53 97 C53.02094727 97.59425781 53.04189453 98.18851562 53.06347656 98.80078125 C53.14741854 101.53367705 53.19890281 104.26630057 53.25 107 C53.28351563 107.93457031 53.31703125 108.86914062 53.3515625 109.83203125 C53.43836697 116.03855063 52.71885684 120.88959103 49 126 C41.20969337 132.20044813 32.95166599 131.3209792 23.49560547 131.4050293 C21.67217044 131.42659402 19.84883851 131.46067919 18.02587891 131.50756836 C15.3865778 131.57478275 12.74941276 131.60206089 10.109375 131.62109375 C8.89806915 131.66283974 8.89806915 131.66283974 7.66229248 131.70542908 C2.17585042 131.68567536 -0.62094598 130.3556581 -4.605896 126.58973694 C-10.00118203 120.43733692 -9.66001366 112.79623843 -10 105 C-12.64 105 -15.28 105 -18 105 C-18.01417969 105.75023437 -18.02835937 106.50046875 -18.04296875 107.2734375 C-18.38098445 114.52707163 -19.31455222 121.20097046 -24 127 C-29.46591898 130.76827091 -33.40555795 131.59809579 -39.96875 131.53125 C-40.8078894 131.5350769 -41.64702881 131.53890381 -42.51159668 131.54284668 C-44.27646086 131.54555491 -46.04136592 131.53827034 -47.80615234 131.52148438 C-50.49278059 131.50005758 -53.17673522 131.52132161 -55.86328125 131.546875 C-57.58594335 131.54423153 -59.30860379 131.53910615 -61.03125 131.53125 C-61.82623901 131.53934692 -62.62122803 131.54744385 -63.44030762 131.55578613 C-69.06956218 131.46210988 -72.3647454 130.23113127 -77 127 C-81.80540176 121.03975169 -81.4898886 115.49443333 -81.25 108.0625 C-81.23195312 106.99708984 -81.21390625 105.93167969 -81.1953125 104.83398438 C-81.14845557 102.22171071 -81.08286926 99.61133774 -81 97 C-82.11503906 96.86722656 -83.23007813 96.73445313 -84.37890625 96.59765625 C-88 96 -88 96 -89.9375 94.4375 C-91.51625809 90.8156432 -91.25819628 87.93749325 -91 84 C-90.505 83.505 -90.505 83.505 -90 83 C-89.90430319 80.99036704 -89.81537685 78.98017555 -89.76123047 76.96899414 C-89.17364492 56.79457508 -84.112179 40.2926988 -69 26 C-51.88017905 11.73766015 -32.01950154 6.28432331 -9.96875 8.2734375 C-1.23968814 9.6341442 7.18182407 12.93078072 15 17 C11.18465286 11.37423323 6.95408478 6.94808139 1.7578125 2.56640625 C1.17773438 2.04949219 0.59765625 1.53257813 0 1 C0 0.67 0 0.34 0 0 Z " fill="#060606" transform="translate(264,87)"/>
<path d="M0 0 C2.67116482 2.54016953 4.76076167 4.98898746 6.6875 8.125 C13.27198042 18.14199151 21.09929839 26.66539602 32.8125 30.375 C36.89268 31.17969914 36.89268 31.17969914 41 31 C41.99 29.515 41.99 29.515 43 28 C42.28714844 27.78085938 41.57429688 27.56171875 40.83984375 27.3359375 C34.28940643 25.16715206 29.9361735 22.82648076 25 18 C25.33 17.34 25.66 16.68 26 16 C26.46148437 16.39832031 26.92296875 16.79664063 27.3984375 17.20703125 C32.46869836 21.32536567 37.46471537 24.0511577 44 25 C48.35067278 24.50095224 50.12020789 23.30642798 53 20 C52.12988281 19.76216797 52.12988281 19.76216797 51.2421875 19.51953125 C45.72441313 17.87148313 42.17846247 15.96418234 38 12 C38.33 11.34 38.66 10.68 39 10 C39.680625 10.61875 40.36125 11.2375 41.0625 11.875 C45.47468219 15.06679137 50.52672084 16.73963232 56 16 C57.35989474 15.0364316 58.69721515 14.03948517 60 13 C60.68835938 14.46373047 60.68835938 14.46373047 61.390625 15.95703125 C62.00987674 17.24244775 62.6296985 18.52758975 63.25 19.8125 C63.70052734 20.77639648 63.70052734 20.77639648 64.16015625 21.75976562 C65.94213482 25.41850886 67.46873276 27.89842724 71 30 C70.360625 29.113125 69.72125 28.22625 69.0625 27.3125 C65.7176089 21.94040218 65.69568265 17.18778619 66 11 C66.66 10.34 67.32 9.68 68 9 C68.05607422 10.06927734 68.05607422 10.06927734 68.11328125 11.16015625 C68.51911852 17.07264824 69.11526695 21.78529026 72 27 C72.99 27.66 73.98 28.32 75 29 C74.01 27.515 74.01 27.515 73 26 C71.88595479 21.98943724 71.91875216 18.14363981 72 14 C72.99 14.495 72.99 14.495 74 15 C74.52734375 17.07421875 74.52734375 17.07421875 74.9375 19.6875 C75.51920689 22.96832688 76.06874339 25.13219882 77.625 28.125 C79.46826622 31.9791021 79.09568918 34.74618118 79 39 C77.78417236 39.01981934 76.56834473 39.03963867 75.31567383 39.06005859 C70.79609802 39.13624695 66.2768386 39.22494405 61.75756836 39.31738281 C59.80320491 39.35561789 57.84877241 39.39048027 55.89428711 39.421875 C53.08161778 39.46764435 50.26942161 39.52561923 47.45703125 39.5859375 C46.58601273 39.59748871 45.7149942 39.60903992 44.81758118 39.62094116 C40.51513979 39.72513491 36.84367495 39.8289246 33 42 C32.11306697 44.04105639 32.11306697 44.04105639 32 46 C29.36 46 26.72 46 24 46 C23.731875 45.38125 23.46375 44.7625 23.1875 44.125 C22.04443152 41.7004767 22.04443152 41.7004767 19 40 C16.84120666 39.67370844 16.84120666 39.67370844 14.43676758 39.68115234 C13.05567558 39.65134781 13.05567558 39.65134781 11.64668274 39.62094116 C10.65597275 39.60938995 9.66526276 39.59783875 8.64453125 39.5859375 C7.62775803 39.56657135 6.6109848 39.5472052 5.56340027 39.5272522 C2.31318573 39.46743259 -0.93706417 39.42106124 -4.1875 39.375 C-6.38998948 39.33682244 -8.59246399 39.29777084 -10.79492188 39.2578125 C-16.19648183 39.16172917 -21.59813177 39.07668862 -27 39 C-26.84465974 37.56630739 -26.68819097 36.13273702 -26.53125 34.69921875 C-26.44423828 33.90088623 -26.35722656 33.10255371 -26.26757812 32.2800293 C-25.89271414 29.08581873 -25.53181328 26.8721499 -24 24 C-21.87025507 22.35969955 -19.65175923 20.96287153 -17.3671875 19.546875 C-9.88752305 14.65917348 -5.03108422 7.22646643 0 0 Z " fill="#F7F7F7" transform="translate(222,129)"/>
<path d="M0 0 C0.76171509 -0.0038269 1.52343018 -0.00765381 2.30822754 -0.01159668 C3.91529668 -0.01431313 5.52241024 -0.00697044 7.12939453 0.00976562 C9.58596587 0.03118214 12.03961311 0.00995822 14.49609375 -0.015625 C16.05990227 -0.01298167 17.62370898 -0.00785658 19.1875 0 C20.28608337 -0.01214539 20.28608337 -0.01214539 21.40686035 -0.02453613 C24.77447328 0.03722416 26.77264433 0.30516994 29.5546875 2.26391602 C31.32328282 4.86939583 31.60796015 6.21637764 31.625 9.33984375 C31.63273437 10.70786133 31.63273437 10.70786133 31.640625 12.10351562 C31.62515625 13.04904297 31.6096875 13.99457031 31.59375 14.96875 C31.60921875 15.91041016 31.6246875 16.85207031 31.640625 17.82226562 C31.61601699 22.18095977 31.51324454 24.82646361 29.25 28.62890625 C24.27637322 33.01687046 17.18258435 31.86585974 10.89746094 31.9362793 C9.44832554 31.95787668 7.99932122 31.99200181 6.55078125 32.03881836 C4.45253819 32.10594112 2.3569785 32.13328609 0.2578125 32.15234375 C-0.99563965 32.1773999 -2.2490918 32.20245605 -3.54052734 32.22827148 C-6.90625 31.53125 -6.90625 31.53125 -9.81469727 28.80737305 C-11.86139961 25.60150183 -12.5384249 24.20174015 -12.53515625 20.4921875 C-12.53708984 19.58210938 -12.53902344 18.67203125 -12.54101562 17.734375 C-12.51716797 16.80109375 -12.49332031 15.8678125 -12.46875 14.90625 C-12.47970703 13.96523437 -12.49066406 13.02421875 -12.50195312 12.0546875 C-12.43000325 5.30099222 -12.43000325 5.30099222 -10.36499023 2.26611328 C-6.9946311 -0.11197946 -3.97909095 -0.04399083 0 0 Z " fill="#F4F4F4" transform="translate(203.90625,177.46875)"/>
<path d="M0 0 C0.76313004 -0.00524185 1.52626007 -0.0104837 2.31251526 -0.0158844 C3.92553491 -0.02230379 5.53860139 -0.02096861 7.15161133 -0.01245117 C9.61689885 -0.00394767 12.07986374 -0.03268882 14.54492188 -0.06445312 C16.11328056 -0.06606546 17.68164333 -0.06548699 19.25 -0.0625 C19.98552597 -0.07373398 20.72105194 -0.08496796 21.47886658 -0.09654236 C24.84732385 -0.05079536 26.86150036 0.20394472 29.65454102 2.14819336 C31.45991393 4.83287896 31.70608918 6.28208179 31.72265625 9.49609375 C31.73039062 10.93855469 31.73039062 10.93855469 31.73828125 12.41015625 C31.7228125 13.40789062 31.70734375 14.405625 31.69140625 15.43359375 C31.706875 16.43132812 31.72234375 17.4290625 31.73828125 18.45703125 C31.6992613 25.73425237 31.6992613 25.73425237 29.28515625 29.05859375 C24.00358136 32.52709069 18.14051143 31.65733382 12.015625 31.67382812 C9.83164271 31.68352609 7.6486048 31.71454506 5.46484375 31.74609375 C4.07422433 31.75262483 2.68359819 31.75787489 1.29296875 31.76171875 C0.02791504 31.77106445 -1.23713867 31.78041016 -2.54052734 31.79003906 C-6.02033364 31.41049945 -7.39476942 30.91950514 -9.80859375 28.43359375 C-11.34108152 23.83613045 -11.03402439 19.24918736 -11.05859375 14.43359375 C-11.07921875 13.42296875 -11.09984375 12.41234375 -11.12109375 11.37109375 C-11.12625 10.40171875 -11.13140625 9.43234375 -11.13671875 8.43359375 C-11.14606445 7.54671875 -11.15541016 6.65984375 -11.16503906 5.74609375 C-10.80859375 3.43359375 -10.80859375 3.43359375 -9.77612305 1.64819336 C-6.69742544 -0.25235517 -3.51139371 -0.01397625 0 0 Z " fill="#F7F7F7" transform="translate(275.80859375,177.56640625)"/>
<path d="M0 0 C3.23006734 -0.1081697 6.45649754 -0.18739234 9.6875 -0.25 C11.05551758 -0.30027344 11.05551758 -0.30027344 12.45117188 -0.3515625 C16.76064948 -0.41424581 19.30145556 -0.40711629 23.08984375 1.80078125 C25.71200366 4.81975064 25.8613923 7.04968062 26 11 C25.70250054 12.67343448 25.37872934 14.34305915 25 16 C25.33 16.66 25.66 17.32 26 18 C26.07033769 19.87379605 26.0843022 21.75001102 26.0625 23.625 C26.05347656 24.62789063 26.04445312 25.63078125 26.03515625 26.6640625 C26.02355469 27.43492187 26.01195312 28.20578125 26 29 C24.02 29 22.04 29 20 29 C19.505 24.05 19.505 24.05 19 19 C12.73 18.67 6.46 18.34 0 18 C0 12.06 0 6.12 0 0 Z " fill="#0F0F0F" transform="translate(163,240)"/>
<path d="M0 0 C1.69576172 -0.03867188 1.69576172 -0.03867188 3.42578125 -0.078125 C7.02827832 0.28428189 8.82169627 1.07909027 11.6875 3.25 C13.95348448 6.64897673 13.92492654 7.81319173 13.8828125 11.79296875 C13.87636719 12.86611328 13.86992187 13.93925781 13.86328125 15.04492188 C13.84652344 16.16447266 13.82976562 17.28402344 13.8125 18.4375 C13.80347656 19.56865234 13.79445313 20.69980469 13.78515625 21.86523438 C13.76156862 24.66036828 13.728653 27.45507845 13.6875 30.25 C11.7075 30.25 9.7275 30.25 7.6875 30.25 C7.6875 25.96 7.6875 21.67 7.6875 17.25 C4.0575 17.25 0.4275 17.25 -3.3125 17.25 C-3.3125 15.6 -3.3125 13.95 -3.3125 12.25 C0.3175 12.25 3.9475 12.25 7.6875 12.25 C7.3575 10.6 7.0275 8.95 6.6875 7.25 C2.7275 7.25 -1.2325 7.25 -5.3125 7.25 C-5.6425 14.84 -5.9725 22.43 -6.3125 30.25 C-8.2925 30.25 -10.2725 30.25 -12.3125 30.25 C-12.42893304 26.35441912 -12.49982909 22.45928742 -12.5625 18.5625 C-12.59601563 17.45970703 -12.62953125 16.35691406 -12.6640625 15.22070312 C-12.76323033 7.01456529 -12.76323033 7.01456529 -10.421875 3.04296875 C-6.89098623 0.04171329 -4.5869927 0.06233739 0 0 Z " fill="#0F0F0F" transform="translate(311.3125,239.75)"/>
<path d="M0 0 C1.18239258 0.02707031 1.18239258 0.02707031 2.38867188 0.0546875 C4.32214261 0.10155952 6.25498285 0.1732959 8.1875 0.25 C8.1875 2.23 8.1875 4.21 8.1875 6.25 C2.9075 6.25 -2.3725 6.25 -7.8125 6.25 C-7.8125 8.23 -7.8125 10.21 -7.8125 12.25 C-6.85988281 12.18039063 -5.90726563 12.11078125 -4.92578125 12.0390625 C4.97071778 11.61187549 4.97071778 11.61187549 8.265625 13.33984375 C10.77599143 16.05940739 11.18732201 18.24483831 11.3125 21.875 C9.93296123 26.01361632 8.91267273 27.01779533 5.1875 29.25 C2.06428524 29.72226616 -0.97562565 29.62925609 -4.125 29.5 C-4.96095703 29.48195313 -5.79691406 29.46390625 -6.65820312 29.4453125 C-8.71013228 29.39841126 -10.76146756 29.32667411 -12.8125 29.25 C-12.8125 27.27 -12.8125 25.29 -12.8125 23.25 C-7.2025 23.25 -1.5925 23.25 4.1875 23.25 C4.1875 21.6 4.1875 19.95 4.1875 18.25 C3.31867188 18.33121094 2.44984375 18.41242188 1.5546875 18.49609375 C-7.54453172 18.99482053 -7.54453172 18.99482053 -11.046875 16.9375 C-13.98474522 13.80377176 -14.77936974 11.90156177 -15 7.5625 C-12.28256122 -0.01772398 -7.10590428 -0.30972927 0 0 Z " fill="#131313" transform="translate(220.8125,239.75)"/>
<path d="M0 0 C0.75410156 0.00451172 1.50820313 0.00902344 2.28515625 0.01367188 C4.14847127 0.02546501 6.01174555 0.04340058 7.875 0.0625 C7.875 2.0425 7.875 4.0225 7.875 6.0625 C2.925 6.3925 -2.025 6.7225 -7.125 7.0625 C-7.125 8.3825 -7.125 9.7025 -7.125 11.0625 C-6.16078125 11.08828125 -5.1965625 11.1140625 -4.203125 11.140625 C-2.30820312 11.22570312 -2.30820312 11.22570312 -0.375 11.3125 C1.50445312 11.38210937 1.50445312 11.38210937 3.421875 11.453125 C7.33226353 12.14319356 8.58009551 12.87229944 10.875 16.0625 C11.82480695 22.71114865 11.82480695 22.71114865 8.953125 26.796875 C4.63129824 29.977915 1.27550293 29.62768098 -3.9375 29.375 C-4.82115234 29.35244141 -5.70480469 29.32988281 -6.61523438 29.30664062 C-8.7858891 29.24797428 -10.9556669 29.15829979 -13.125 29.0625 C-13.125 27.0825 -13.125 25.1025 -13.125 23.0625 C-7.185 23.0625 -1.245 23.0625 4.875 23.0625 C4.875 21.4125 4.875 19.7625 4.875 18.0625 C3.99457031 18.12050781 3.11414063 18.17851562 2.20703125 18.23828125 C-7.26802919 18.60634686 -7.26802919 18.60634686 -11.375 16 C-13.48455363 12.45896356 -14.19877983 10.19417073 -14.125 6.0625 C-10.20224971 -0.15979356 -6.89009652 -0.07734996 0 0 Z " fill="#101010" transform="translate(356.125,239.9375)"/>
<path d="M0 0 C1.69576172 -0.03867188 1.69576172 -0.03867188 3.42578125 -0.078125 C7.02827832 0.28428189 8.82169627 1.07909027 11.6875 3.25 C13.95348448 6.64897673 13.92492654 7.81319173 13.8828125 11.79296875 C13.87636719 12.86611328 13.86992187 13.93925781 13.86328125 15.04492188 C13.84652344 16.16447266 13.82976562 17.28402344 13.8125 18.4375 C13.80347656 19.56865234 13.79445313 20.69980469 13.78515625 21.86523438 C13.76156862 24.66036828 13.728653 27.45507845 13.6875 30.25 C11.7075 30.25 9.7275 30.25 7.6875 30.25 C7.1925 18.865 7.1925 18.865 6.6875 7.25 C2.7275 6.92 -1.2325 6.59 -5.3125 6.25 C-5.3125 10.21 -5.3125 14.17 -5.3125 18.25 C-7.6225 18.25 -9.9325 18.25 -12.3125 18.25 C-12.9402245 7.31713165 -12.9402245 7.31713165 -10.4375 3.0625 C-6.89859711 0.04402401 -4.60393926 0.06256769 0 0 Z " fill="#151515" transform="translate(280.3125,239.75)"/>
<path d="M0 0 C5.54361702 3.28510638 5.54361702 3.28510638 6.515625 6.9375 C6.71870236 10.76695879 6.22165721 12.65273704 4.125 15.9375 C1.40493999 18.57755824 0.49785154 18.94363945 -3.3125 19.375 C-7.90598187 18.90786625 -9.11447985 17.47959782 -12 14 C-12.33 13.67 -12.66 13.34 -13 13 C-13.375 9.75 -13.375 9.75 -13 6 C-9.01674736 1.17816785 -6.28391573 -0.7250672 0 0 Z " fill="#0B0B0B" transform="translate(218,184)"/>
<path d="M0 0 C4.58740718 0.45874072 7.48542352 2.11042352 10.75 5.375 C11.43358159 10.10147844 11.43354785 13.38074858 8.6875 17.375 C5.17070506 19.76941358 2.99773336 20.375 -1.25 20.375 C-4.89886208 18.79935501 -7.38562322 16.90750338 -9.25 13.375 C-9.4375 9.625 -9.4375 9.625 -9.25 6.375 C-8.59 6.045 -7.93 5.715 -7.25 5.375 C-6.92 6.365 -6.59 7.355 -6.25 8.375 C-3.28 8.87 -3.28 8.87 -0.25 9.375 C-0.43828772 6.93019921 -0.43828772 6.93019921 -1.25 4.375 C-3.21758273 3.01479849 -3.21758273 3.01479849 -5.25 2.375 C-3.25 0.375 -3.25 0.375 0 0 Z " fill="#0A0A0A" transform="translate(282.25,183.625)"/>
<path d="M0 0 C2.31 0 4.62 0 7 0 C7.06058594 1.13179687 7.12117187 2.26359375 7.18359375 3.4296875 C7.26799917 4.91147145 7.35264717 6.3932416 7.4375 7.875 C7.47681641 8.62136719 7.51613281 9.36773437 7.55664062 10.13671875 C7.71573624 14.19986864 7.71573624 14.19986864 9 18 C9.07033769 19.87379605 9.0843022 21.75001102 9.0625 23.625 C9.05347656 24.62789063 9.04445312 25.63078125 9.03515625 26.6640625 C9.02355469 27.43492187 9.01195312 28.20578125 9 29 C7.02 29 5.04 29 3 29 C2.67 25.7 2.34 22.4 2 19 C-1.3 18.67 -4.6 18.34 -8 18 C-8 16.02 -8 14.04 -8 12 C-4.535 11.505 -4.535 11.505 -1 11 C-0.67 7.37 -0.34 3.74 0 0 Z " fill="#161616" transform="translate(149,240)"/>
<path d="M0 0 C4.13782214 0.51248256 5.95085585 2.67430982 8.75 5.625 C12.99069148 9.99665401 17.34295051 14.07932158 22 18 C22.60328125 18.50789063 23.2065625 19.01578125 23.828125 19.5390625 C25.21406619 20.69833107 26.60623786 21.85014623 28 23 C27.85496527 27.78614606 25.51288681 29.93636228 22.2265625 33.046875 C18.78745741 36.06363385 15.22465035 38.92047853 11.65234375 41.77734375 C8.69888279 44.25233533 6.08880838 46.90495014 3.53515625 49.78515625 C2 51 2 51 -2 51 C-0.44298875 47.10747188 2.01434106 44.93857023 5.125 42.1875 C6.10855469 41.31351563 7.09210938 40.43953125 8.10546875 39.5390625 C9.53826172 38.28222656 9.53826172 38.28222656 11 37 C11.77988281 36.30648437 12.55976563 35.61296875 13.36328125 34.8984375 C16.4927134 32.12850697 19.63274952 29.47918442 23 27 C22.47345807 23.01077554 20.68667474 21.49660444 17.6875 18.9375 C16.35138672 17.77154297 16.35138672 17.77154297 14.98828125 16.58203125 C14.00214844 15.72996094 13.01601563 14.87789062 12 14 C9.77763362 12.05699423 7.57300931 10.09548165 5.375 8.125 C4.84221436 7.66085693 4.30942871 7.19671387 3.76049805 6.71850586 C2.44901866 5.54052134 1.21690394 4.27544914 0 3 C0 2.01 0 1.02 0 0 Z " fill="#1D1D1D" transform="translate(329,165)"/>
<path d="M0 0 C0 0.99 0 1.98 0 3 C-2.16015625 5.015625 -2.16015625 5.015625 -5.0625 7.25 C-9.11869547 10.45335437 -12.84505966 13.71127559 -16.4296875 17.42578125 C-18.80652569 19.80853197 -21.37958718 21.89088724 -24 24 C-20.79652735 28.10444933 -17.41903714 31.48274706 -13.46875 34.86328125 C-10.26883933 37.63282419 -7.12796622 40.46217899 -4 43.3125 C-3.11731445 44.10454834 -3.11731445 44.10454834 -2.21679688 44.91259766 C-0.77236133 46.23382131 0.61896026 47.61264453 2 49 C2 49.66 2 50.32 2 51 C-2.17284401 50.49551109 -3.98879713 49.45432229 -6.8125 46.375 C-9.42507356 43.6205451 -12.04543873 41.0224804 -14.9375 38.5625 C-18.02172243 35.87762908 -21.07767919 33.17038172 -24.0625 30.375 C-24.83722656 29.66085938 -25.61195313 28.94671875 -26.41015625 28.2109375 C-28 26 -28 26 -28.03125 23.5 C-26.71681215 20.31348399 -25.06455175 18.84696438 -22.4375 16.625 C-21.08205078 15.46097656 -21.08205078 15.46097656 -19.69921875 14.2734375 C-18.36310547 13.14808594 -18.36310547 13.14808594 -17 12 C-15.58108756 10.75254983 -14.16418928 9.50280211 -12.75 8.25 C-11.5 7.16666667 -10.25 6.08333333 -9 5 C-8.43152344 4.49082031 -7.86304688 3.98164063 -7.27734375 3.45703125 C-3.33613445 0 -3.33613445 0 0 0 Z " fill="#212121" transform="translate(171,167)"/>
<path d="M0 0 C1.98 0 3.96 0 6 0 C6 9.9 6 19.8 6 30 C4.02 30 2.04 30 0 30 C0 25.71 0 21.42 0 17 C-3.63 17 -7.26 17 -11 17 C-11 15.35 -11 13.7 -11 12 C-7.37 12 -3.74 12 0 12 C0 8.04 0 4.08 0 0 Z " fill="#0D0D0D" transform="translate(257,240)"/>
<path d="M0 0 C2.5 1 2.5 1 4 3 C4.55723448 7.38822151 4.77235685 9.71273859 2.5 13.5 C-1.28726141 15.77235685 -3.61177849 15.55723448 -8 15 C-10 13.5 -10 13.5 -11 11 C-11.49521025 7.48400722 -11.62824168 4.25648337 -10 1 C-6.74351663 -0.62824168 -3.51599278 -0.49521025 0 0 Z " fill="#353535" transform="translate(264,283)"/>
<path d="M0 0 C1.9453125 0.3359375 1.9453125 0.3359375 4.5078125 1.7734375 C6.41982463 5.18180695 6.05837704 7.51313125 5.59765625 11.3125 C4.9453125 13.3359375 4.9453125 13.3359375 1.9453125 15.3359375 C-0.24609375 15.63671875 -0.24609375 15.63671875 -2.6171875 15.6484375 C-3.40222656 15.66519531 -4.18726563 15.68195313 -4.99609375 15.69921875 C-6.01509766 15.51939453 -6.01509766 15.51939453 -7.0546875 15.3359375 C-9.11989382 12.23812802 -9.34945774 11.3818894 -9.3671875 7.8359375 C-9.38394531 7.0625 -9.40070313 6.2890625 -9.41796875 5.4921875 C-8.52869278 0.21390432 -4.88433548 -0.23430392 0 0 Z " fill="#343434" transform="translate(312.0546875,282.6640625)"/>
<path d="M0 0 C1.98 0 3.96 0 6 0 C6 9.9 6 19.8 6 30 C4.02 30 2.04 30 0 30 C0 20.1 0 10.2 0 0 Z " fill="#111111" transform="translate(237,240)"/>
<path d="M0 0 C1.98 0 3.96 0 6 0 C6 9.9 6 19.8 6 30 C4.02 30 2.04 30 0 30 C0 20.1 0 10.2 0 0 Z " fill="#131313" transform="translate(195,240)"/>
<path d="M0 0 C1.98 0 3.96 0 6 0 C6 9.9 6 19.8 6 30 C4.02 30 2.04 30 0 30 C0 20.1 0 10.2 0 0 Z " fill="#151515" transform="translate(133,240)"/>
<path d="M0 0 C1.093125 0.00257813 2.18625 0.00515625 3.3125 0.0078125 C4.405625 0.00523437 5.49875 0.00265625 6.625 0 C9.3125 0.1328125 9.3125 0.1328125 10.3125 1.1328125 C10.3125 2.7828125 10.3125 4.4328125 10.3125 6.1328125 C6.6825 6.1328125 3.0525 6.1328125 -0.6875 6.1328125 C-0.6875 7.7828125 -0.6875 9.4328125 -0.6875 11.1328125 C2.9425 11.1328125 6.5725 11.1328125 10.3125 11.1328125 C10.3125 15.0928125 10.3125 19.0528125 10.3125 23.1328125 C9.9825 23.1328125 9.6525 23.1328125 9.3125 23.1328125 C9.3125 19.5028125 9.3125 15.8728125 9.3125 12.1328125 C5.6825 12.1328125 2.0525 12.1328125 -1.6875 12.1328125 C-2.0175 15.7628125 -2.3475 19.3928125 -2.6875 23.1328125 C-3.0175 23.1328125 -3.3475 23.1328125 -3.6875 23.1328125 C-3.71637512 19.48699563 -3.73425585 15.84120787 -3.75 12.1953125 C-3.75837891 11.15439453 -3.76675781 10.11347656 -3.77539062 9.04101562 C-3.78022461 7.55698242 -3.78022461 7.55698242 -3.78515625 6.04296875 C-3.79039307 5.12652588 -3.79562988 4.21008301 -3.80102539 3.26586914 C-3.62994481 0.05139374 -3.24685421 0.160455 0 0 Z " fill="#C3C3C3" transform="translate(308.6875,245.8671875)"/>
<path d="M0 0 C3.96 0 7.92 0 12 0 C12 0.99 12 1.98 12 3 C9.03 3 6.06 3 3 3 C3 3.99 3 4.98 3 6 C4.98 6 6.96 6 9 6 C9 6.99 9 7.98 9 9 C7.02 9 5.04 9 3 9 C3 9.99 3 10.98 3 12 C5.97 12 8.94 12 12 12 C12 12.99 12 13.98 12 15 C8.04 15 4.08 15 0 15 C0 10.05 0 5.1 0 0 Z " fill="#353535" transform="translate(154,283)"/>
<path d="M0 0 C0.33 0.99 0.66 1.98 1 3 C-3.455 3.495 -3.455 3.495 -8 4 C-8 6.31 -8 8.62 -8 11 C-5.36 11.33 -2.72 11.66 0 12 C0 11.01 0 10.02 0 9 C-1.32 9 -2.64 9 -4 9 C-4 8.01 -4 7.02 -4 6 C-1.69 6 0.62 6 3 6 C2.25 12.75 2.25 12.75 0 15 C-3.05615164 15.55091918 -5.9429196 15.54310769 -9 15 C-11.57272416 12.3493145 -11.91988537 10.56080238 -12.4375 6.9375 C-12 4 -12 4 -10.5 1.625 C-6.86748926 -0.73613198 -4.28156703 -0.2854378 0 0 Z " fill="#292929" transform="translate(341,283)"/>
<path d="M0 0 C4.59195094 1.14798774 4.87820524 1.73528573 7.25 5.5625 C8.03117188 6.80193359 8.03117188 6.80193359 8.828125 8.06640625 C9.21484375 8.70449219 9.6015625 9.34257812 10 10 C10.33 6.7 10.66 3.4 11 0 C11.66 0 12.32 0 13 0 C13 4.95 13 9.9 13 15 C8.77000325 13.94250081 8.45069644 13.79967512 6.25 10.4375 C5.82203125 9.79683594 5.3940625 9.15617187 4.953125 8.49609375 C4.63859375 8.00238281 4.3240625 7.50867188 4 7 C3.67 9.64 3.34 12.28 3 15 C2.01 15 1.02 15 0 15 C0 10.05 0 5.1 0 0 Z " fill="#181818" transform="translate(228,283)"/>
<path d="M0 0 C0.66 0.33 1.32 0.66 2 1 C1.67 1.99 1.34 2.98 1 4 C-1.64 4 -4.28 4 -7 4 C-7 6.31 -7 8.62 -7 11 C-4.03 11.33 -1.06 11.66 2 12 C1.67 12.99 1.34 13.98 1 15 C-7.18462594 15.61770762 -7.18462594 15.61770762 -10.0625 13.4375 C-11.6627583 9.27682842 -11.69514069 5.69440543 -10 1.5625 C-6.76802488 -0.96248057 -4.02735985 -0.31963173 0 0 Z " fill="#383838" transform="translate(188,283)"/>
<path d="M0 0 C2.37714151 1.45549555 4.00639396 3.00639396 6 5 C5.67 5.99 5.34 6.98 5 8 C4.38125 7.67 3.7625 7.34 3.125 7 C-2.24999892 5.28000034 -7.75000108 5.28000034 -13.125 7 C-13.74375 7.33 -14.3625 7.66 -15 8 C-14.76793596 4.75110346 -13.93662944 3.94435756 -11.4375 1.75 C-7.39829378 -0.30632317 -4.44209099 -1.06645439 0 0 Z " fill="#252525" transform="translate(285,157)"/>
<path d="M0 0 C0.66 0 1.32 0 2 0 C2 1.98 2 3.96 2 6 C4.97 6 7.94 6 11 6 C11 4.02 11 2.04 11 0 C11.66 0 12.32 0 13 0 C13 4.95 13 9.9 13 15 C12.34 15 11.68 15 11 15 C11 13.02 11 11.04 11 9 C8.03 9 5.06 9 2 9 C2 10.98 2 12.96 2 15 C1.34 15 0.68 15 0 15 C0 10.05 0 5.1 0 0 Z " fill="#1E1E1E" transform="translate(203,283)"/>
<path d="M0 0 C2.50366401 1.42915282 3.97282356 2.87146473 6 5 C6 5.66 6 6.32 6 7 C5.38125 6.835 4.7625 6.67 4.125 6.5 C-2.00381281 5.51938995 -8.37398926 4.99946094 -14 8 C-13.73593684 4.74322102 -13.43253722 3.38010847 -10.9375 1.1875 C-7.2088685 -0.31981912 -3.92399886 -0.84140326 0 0 Z " fill="#1E1E1E" transform="translate(224,157)"/>
<path d="M0 0 C6.15234375 -0.09765625 6.15234375 -0.09765625 8 0 C9 1 9 1 9.125 4.5 C9 8 9 8 8 9 C5.32941149 9.14115161 2.67567762 9.04247107 0 9 C-1.125 2.25 -1.125 2.25 0 0 Z " fill="#F0F0F0" transform="translate(306,286)"/>
<path d="M0 0 C1.32 0 2.64 0 4 0 C4 3.96 4 7.92 4 12 C6.64 12 9.28 12 12 12 C12 12.99 12 13.98 12 15 C8.04 15 4.08 15 0 15 C0 10.05 0 5.1 0 0 Z " fill="#828282" transform="translate(279,283)"/>
<path d="M0 0 C4.29 0 8.58 0 13 0 C13.33 1.65 13.66 3.3 14 5 C13 6 13 6 10.05859375 6.09765625 C8.26615234 6.08025391 8.26615234 6.08025391 6.4375 6.0625 C4.64119141 6.04896484 4.64119141 6.04896484 2.80859375 6.03515625 C1.88175781 6.02355469 0.95492187 6.01195312 0 6 C0 4.02 0 2.04 0 0 Z " fill="#E0E0E0" transform="translate(169,246)"/>
<path d="M0 0 C3.5 0.125 3.5 0.125 4.5 1.125 C4.64115161 3.79558851 4.54247107 6.44932238 4.5 9.125 C-1.65234375 9.22265625 -1.65234375 9.22265625 -3.5 9.125 C-4.5 8.125 -4.5 8.125 -4.625 4.625 C-4.46551724 0.15948276 -4.46551724 0.15948276 0 0 Z " fill="#F9F9F9" transform="translate(260.5,285.875)"/>
<path d="M0 0 C4.29 0 8.58 0 13 0 C13 0.99 13 1.98 13 3 C11.35 3 9.7 3 8 3 C8 6.96 8 10.92 8 15 C7.01 15 6.02 15 5 15 C5 11.04 5 7.08 5 3 C3.35 3 1.7 3 0 3 C0 2.01 0 1.02 0 0 Z " fill="#373737" transform="translate(130,283)"/>
<path d="M0 0 C3 0 3 0 5.1875 2 C5.785625 2.66 6.38375 3.32 7 4 C7.6496875 3.01 7.6496875 3.01 8.3125 2 C8.869375 1.34 9.42625 0.68 10 0 C10.99 0 11.98 0 13 0 C11.92598892 2.91517292 11.22189824 4.77810176 9 7 C8.54188325 8.97235333 8.54188325 8.97235333 8.375 11.125 C8.25125 12.40375 8.1275 13.6825 8 15 C7.01 15 6.02 15 5 15 C4.87625 13.1746875 4.87625 13.1746875 4.75 11.3125 C4.26054875 7.18503799 2.81802548 5.09073762 0 2 C0 1.34 0 0.68 0 0 Z " fill="#2A2A2A" transform="translate(356,283)"/>
<path d="M0 0 C1.98 0 3.96 0 6 0 C6 3.3 6 6.6 6 10 C4.02 10 2.04 10 0 10 C0 6.7 0 3.4 0 0 Z " fill="#1C1C1C" transform="translate(268,260)"/>
<path d="M0 0 C1.98 0 3.96 0 6 0 C6 3.3 6 6.6 6 10 C4.02 10 2.04 10 0 10 C0 6.7 0 3.4 0 0 Z " fill="#1E1E1E" transform="translate(164,260)"/>
<path d="M0 0 C0.65484375 0.47050781 1.3096875 0.94101563 1.984375 1.42578125 C8.78887918 6.06783707 14.90946498 8.51744123 23 10 C22.01 10.495 22.01 10.495 21 11 C19.86649466 13.01669827 19.86649466 13.01669827 19 15 C18.34 14.67 17.68 14.34 17 14 C17.33 13.34 17.66 12.68 18 12 C17.28714844 11.78085938 16.57429688 11.56171875 15.83984375 11.3359375 C9.64212413 9.28393343 4.28240255 7.11549793 0 2 C0 1.34 0 0.68 0 0 Z " fill="#BBBBBB" transform="translate(247,145)"/>
<path d="M0 0 C0.66 0 1.32 0 2 0 C2 4.95 2 9.9 2 15 C-2 14 -2 14 -3.75 11.5625 C-5 9 -5 9 -5 7 C-2 8 -2 8 -1 10 C-0.67 6.7 -0.34 3.4 0 0 Z " fill="#111111" transform="translate(239,283)"/>
<path d="M0 0 C0 0.66 0 1.32 0 2 C-2.64 2.33 -5.28 2.66 -8 3 C-8 6.3 -8 9.6 -8 13 C-8.99 12.67 -9.98 12.34 -11 12 C-11.08131463 10.56344146 -11.13933559 9.1255517 -11.1875 7.6875 C-11.22230469 6.88699219 -11.25710938 6.08648437 -11.29296875 5.26171875 C-11 3 -11 3 -9.75 1.21875 C-6.66322536 -0.93096805 -3.66205194 -0.18010091 0 0 Z " fill="#1E1E1E" transform="translate(314,283)"/>
<path d="M0 0 C1.98 0.66 3.96 1.32 6 2 C6 3.65 6 5.3 6 7 C4.02 7 2.04 7 0 7 C-0.66 5.35 -1.32 3.7 -2 2 C-1.34 1.34 -0.68 0.68 0 0 Z " fill="#C6C6C6" transform="translate(276,186)"/>
<path d="M0 0 C0.66 0 1.32 0 2 0 C2.48 7.2 2.48 7.2 0.5 10.5 C-3.14008723 12.68405234 -5.79654733 12.28023018 -10 12 C-10 11.34 -10 10.68 -10 10 C-7.03 9.34 -4.06 8.68 -1 8 C-0.67 5.36 -0.34 2.72 0 0 Z " fill="#1D1D1D" transform="translate(266,286)"/>
<path d="M0 0 C1.65 0 3.3 0 5 0 C5 2.64 5 5.28 5 8 C3.35 8 1.7 8 0 8 C0 5.36 0 2.72 0 0 Z " fill="#0D0D0D" transform="translate(331,238)"/>
<path d="M0 0 C2.31 0 4.62 0 7 0 C6.74438677 2.3431213 6.40729228 4.67843403 6 7 C2.93109813 8.53445094 0.29905734 7.54984289 -3 7 C-3 6.67 -3 6.34 -3 6 C-0.69 6 1.62 6 4 6 C4 5.01 4 4.02 4 3 C2.68 3 1.36 3 0 3 C0 2.01 0 1.02 0 0 Z " fill="#323232" transform="translate(337,289)"/>
<path d="M0 0 C0.53367187 0.34933594 1.06734375 0.69867188 1.6171875 1.05859375 C7.42901165 4.6080296 12.21173403 5.8441108 19 6 C19 6.66 19 7.32 19 8 C13.27930196 9.28423834 10.15780295 8.76993121 5 6 C2.0625 3.9375 2.0625 3.9375 0 2 C0 1.34 0 0.68 0 0 Z " fill="#B8B8B8" transform="translate(260,139)"/>
<path d="M0 0 C0.66 0 1.32 0 2 0 C2 4.95 2 9.9 2 15 C1.34 15 0.68 15 0 15 C0 12.69 0 10.38 0 8 C-2.64 8 -5.28 8 -8 8 C-8 7.67 -8 7.34 -8 7 C-5.36 7 -2.72 7 0 7 C0 4.69 0 2.38 0 0 Z " fill="#141414" transform="translate(214,283)"/>
<path d="M0 0 C0.66 0 1.32 0 2 0 C2.33 3.63 2.66 7.26 3 11 C5.31 11.33 7.62 11.66 10 12 C10 12.33 10 12.66 10 13 C6.7 13 3.4 13 0 13 C0 8.71 0 4.42 0 0 Z " fill="#070707" transform="translate(280,284)"/>
<path d="M0 0 C1.67542976 0.28604898 3.34385343 0.61781233 5 1 C4.67 2.65 4.34 4.3 4 6 C2.35 6 0.7 6 -1 6 C-1.042721 4.33388095 -1.04063832 2.66617115 -1 1 C-0.67 0.67 -0.34 0.34 0 0 Z " fill="#E4E4E4" transform="translate(212,186)"/>
<path d="M0 0 C0.99 0.495 0.99 0.495 2 1 C2.5625 3.109375 2.5625 3.109375 3 5.75 C3.65658585 9.38727719 4.42688239 12.62903369 6 16 C5.34 16.66 4.68 17.32 4 18 C0.6312267 11.70185861 -0.13958262 7.11871364 0 0 Z " fill="#8C8C8C" transform="translate(294,143)"/>
<path d="M0 0 C0.33 0 0.66 0 1 0 C1.06058594 0.73605469 1.12117188 1.47210938 1.18359375 2.23046875 C1.26738281 3.20628906 1.35117187 4.18210938 1.4375 5.1875 C1.51871094 6.15042969 1.59992188 7.11335937 1.68359375 8.10546875 C1.97666151 10.78649602 2.42703754 13.3662986 3 16 C2.34 16.33 1.68 16.66 1 17 C-0.74733614 11.75799157 -1.28125389 7.53132651 -1 2 C-0.67 1.34 -0.34 0.68 0 0 Z " fill="#929292" transform="translate(289,138)"/>
<path d="M0 0 C0.66 0.33 1.32 0.66 2 1 C1.34 1.66 0.68 2.32 0 3 C0 3.99 0 4.98 0 6 C-0.66 6.66 -1.32 7.32 -2 8 C-3.32 8 -4.64 8 -6 8 C-4.55746343 4.63408134 -2.66735273 2.48952921 0 0 Z " fill="#333333" transform="translate(333,208)"/>
<path d="M0 0 C0.33 0 0.66 0 1 0 C1.2475 1.03125 1.495 2.0625 1.75 3.125 C2.84079063 7.00600143 4.62933884 9.76009641 7 13 C2.7257442 11.4169423 0.73468206 8.49431596 -2 5 C-1.34 4.67 -0.68 4.34 0 4 C0 2.68 0 1.36 0 0 Z " fill="#282828" transform="translate(288,148)"/>
<path d="M0 0 C-1.46218487 4.6302521 -1.46218487 4.6302521 -4 6.375 C-6 7 -6 7 -8 6 C-6.1410603 2.28212059 -4.24503077 0 0 0 Z " fill="#313131" transform="translate(369,283)"/>
<path d="M0 0 C1.32 1.32 2.64 2.64 4 4 C3.01 4.66 2.02 5.32 1 6 C0.67 5.67 0.34 5.34 0 5 C-0.33 7.64 -0.66 10.28 -1 13 C-1.33 13 -1.66 13 -2 13 C-2.05391993 11.20866022 -2.09275571 9.41686101 -2.125 7.625 C-2.14820313 6.62726563 -2.17140625 5.62953125 -2.1953125 4.6015625 C-2 2 -2 2 0 0 Z " fill="#656565" transform="translate(232,285)"/>
<path d="M0 0 C0.66 0.33 1.32 0.66 2 1 C0.70700306 3.88437779 -0.65941363 5.87219421 -3 8 C-3.99 7.67 -4.98 7.34 -6 7 C-4.02 4.69 -2.04 2.38 0 0 Z " fill="#121212" transform="translate(338,204)"/>
<path d="M0 0 C-0.33 0.99 -0.66 1.98 -1 3 C-3.97 3 -6.94 3 -10 3 C-10 2.34 -10 1.68 -10 1 C-3.375 0 -3.375 0 0 0 Z " fill="#272727" transform="translate(190,295)"/>
<path d="M0 0 C-0.33 2.97 -0.66 5.94 -1 9 C-1.33 9 -1.66 9 -2 9 C-2.33 6.69 -2.66 4.38 -3 2 C-5.97 1.505 -5.97 1.505 -9 1 C-9 0.67 -9 0.34 -9 0 C-3.375 -1.125 -3.375 -1.125 0 0 Z " fill="#424242" transform="translate(267,285)"/>
<path d="M0 0 C0.66 0.33 1.32 0.66 2 1 C1.34 1.66 0.68 2.32 0 3 C0.33 3.66 0.66 4.32 1 5 C-0.65 5.66 -2.3 6.32 -4 7 C-3.6875 4.625 -3.6875 4.625 -3 2 C-2.01 1.34 -1.02 0.68 0 0 Z " fill="#292929" transform="translate(214,158)"/>
<path d="M0 0 C-3 2 -3 2 -6 3 C-7.20882096 5.00016466 -7.20882096 5.00016466 -8 7 C-8.33 5.35 -8.66 3.7 -9 2 C-5.5647952 -0.29013653 -4.014669 -0.17842973 0 0 Z " fill="#606060" transform="translate(218,184)"/>
<path d="M0 0 C1.8871875 0.0309375 1.8871875 0.0309375 3.8125 0.0625 C3.8125 0.7225 3.8125 1.3825 3.8125 2.0625 C-2.5875 3.29326923 -2.5875 3.29326923 -5.625 2.125 C-6.140625 1.774375 -6.65625 1.42375 -7.1875 1.0625 C-4.43671116 0.14557039 -2.82801087 -0.04636083 0 0 Z " fill="#BFBFBF" transform="translate(275.1875,144.9375)"/>
</svg>
