<?xml version="1.0" encoding="UTF-8"?>
<svg version="1.1" xmlns="http://www.w3.org/2000/svg" width="501" height="392">
<path d="M0 0 C6.00168076 0.50406053 10.72584143 1.81947499 16.1875 4.3125 C16.87263672 4.60833984 17.55777344 4.90417969 18.26367188 5.20898438 C22.27860932 6.99812397 25.92698599 8.77924494 29 12 C29.48828125 14.796875 29.48828125 14.796875 29.3125 17.75 C29.26738281 18.73484375 29.22226562 19.7196875 29.17578125 20.734375 C29.11777344 21.48203125 29.05976563 22.2296875 29 23 C29.71542969 22.84660156 30.43085938 22.69320312 31.16796875 22.53515625 C42.57849614 20.37896004 42.57849614 20.37896004 47.3515625 23.57421875 C49.42560091 25.61330146 51.23436456 27.6901334 53 30 C53.45503906 30.59296875 53.91007813 31.1859375 54.37890625 31.796875 C57 35.48649826 57 35.48649826 57 38 C53.04 37.67 49.08 37.34 45 37 C45.54269531 37.94359375 46.08539063 38.8871875 46.64453125 39.859375 C51.07804167 47.74575907 54.41090503 54.99969486 56 64 C56.226875 65.175625 56.45375 66.35125 56.6875 67.5625 C57.12534835 72.37883184 57.07864669 77.16759758 57 82 C58.175625 82.185625 58.175625 82.185625 59.375 82.375 C62 83 62 83 64 85 C64.30078125 87.27734375 64.30078125 87.27734375 64.3125 89.9375 C64.32925781 90.81277344 64.34601563 91.68804687 64.36328125 92.58984375 C64 95 64 95 62.85546875 96.75390625 C60.33237307 98.44836419 57.98614468 98.66820615 55 99 C55.03480469 100.27875 55.06960938 101.5575 55.10546875 102.875 C55.13362787 104.58332009 55.16092574 106.29165452 55.1875 108 C55.21263672 108.83917969 55.23777344 109.67835938 55.26367188 110.54296875 C55.33995919 117.10367766 54.64856091 122.82774636 50.28125 128.05859375 C49.6934375 128.51363281 49.105625 128.96867188 48.5 129.4375 C47.9121875 129.91058594 47.324375 130.38367188 46.71875 130.87109375 C40.94288226 134.6647887 32.24406917 133.30552631 25.55053711 133.35009766 C23.73400019 133.36661899 21.91752725 133.3938585 20.10131836 133.43212891 C17.46954955 133.48724197 14.83930149 133.50882516 12.20703125 133.5234375 C11.4046553 133.54610687 10.60227936 133.56877625 9.77558899 133.59213257 C3.82738838 133.57013113 -0.49433462 131.96737774 -5 128 C-8.4822111 121.49987262 -9.06086165 114.24793831 -10 107 C-12.31 106.67 -14.62 106.34 -17 106 C-17.03738281 106.92941406 -17.07476562 107.85882813 -17.11328125 108.81640625 C-17.90868834 123.77317879 -17.90868834 123.77317879 -22.42578125 128.48828125 C-27.624979 133.06821972 -32.02289934 133.1589981 -38.6484375 133.16796875 C-39.49798004 133.17129715 -40.34752258 133.17462555 -41.22280884 133.17805481 C-43.01995299 133.18311658 -44.81710654 133.18546337 -46.61425781 133.18530273 C-49.35758037 133.18748614 -52.10049875 133.20564113 -54.84375 133.22460938 C-56.59114446 133.2275441 -58.33854083 133.22952837 -60.0859375 133.23046875 C-61.3127272 133.24124702 -61.3127272 133.24124702 -62.56430054 133.25224304 C-66.83331566 133.23520223 -70.10532023 132.97572534 -74 131 C-74 130.34 -74 129.68 -74 129 C-74.598125 128.814375 -75.19625 128.62875 -75.8125 128.4375 C-79.00772502 126.3377807 -80.01716317 123.57037814 -81 120 C-81.34402248 116.34296025 -81.28530378 112.73139549 -81.1875 109.0625 C-81.17396484 108.09248047 -81.16042969 107.12246094 -81.14648438 106.12304688 C-81.11138677 103.74810871 -81.06222275 101.37435622 -81 99 C-81.95261719 98.86464844 -82.90523437 98.72929687 -83.88671875 98.58984375 C-87.1310437 97.9751724 -88.0547579 97.55952907 -90 95 C-91.50934217 91.98131566 -91.17510672 89.32702771 -91 86 C-90.34 85.01 -89.68 84.02 -89 83 C-88.66731868 80.95886406 -88.66731868 80.95886406 -88.65625 78.71875 C-88.62837402 77.88230957 -88.60049805 77.04586914 -88.57177734 76.18408203 C-88.54809082 75.29833496 -88.5244043 74.41258789 -88.5 73.5 C-87.89983348 59.11388094 -85.97860138 45.31278763 -76 34 C-75.34 34 -74.68 34 -74 34 C-73.64421875 33.14535156 -73.64421875 33.14535156 -73.28125 32.2734375 C-66.06180325 19.46332162 -50.22947561 13.90658633 -37 10 C-36.39357666 9.82041748 -35.78715332 9.64083496 -35.16235352 9.45581055 C-19.87074234 6.2324349 -2.39697434 8.24121027 12 14 C9.45395403 10.47618313 9.45395403 10.47618313 6 8 C6 7.34 6 6.68 6 6 C5.38125 5.690625 4.7625 5.38125 4.125 5.0625 C2.75 4.375 1.375 3.6875 0 3 C0 2.01 0 1.02 0 0 Z M-41 44 C-42.1570042 45.58123907 -43.27534384 47.19085515 -44.375 48.8125 C-47.67887999 53.6839656 -47.67887999 53.6839656 -49.7265625 55.69921875 C-51.23318544 56.93480079 -51.23318544 56.93480079 -51 59 C-51.55558594 59.2578125 -52.11117187 59.515625 -52.68359375 59.78125 C-58.04471331 62.60194022 -63.56399902 66.11521465 -66.31640625 71.64453125 C-67.39268787 75.19574065 -68 78.28535184 -68 82 C-67.13342522 82.00213753 -67.13342522 82.00213753 -66.24934387 82.00431824 C-60.23044498 82.0240213 -54.21255942 82.07830753 -48.1940918 82.15258789 C-45.94872307 82.17576945 -43.70324558 82.19016395 -41.45776367 82.19555664 C-38.22766327 82.2048447 -34.99927391 82.24583423 -31.76953125 82.29296875 C-30.76727005 82.2890361 -29.76500885 82.28510345 -28.7323761 82.28105164 C-21.68134542 82.42830277 -21.68134542 82.42830277 -18.0144043 85.50512695 C-17.34965088 86.32843506 -16.68489746 87.15174316 -16 88 C-13 88.83333333 -13 88.83333333 -10 88 C-9.36707031 87.17886719 -8.73414063 86.35773438 -8.08203125 85.51171875 C-3.33834717 81.64582665 1.36383585 82.21750108 7.3125 82.1875 C9.04862549 82.15088257 9.04862549 82.15088257 10.81982422 82.11352539 C14.21352605 82.04898027 17.60576804 82.0184776 21 82 C21.9173291 81.99162109 22.8346582 81.98324219 23.77978516 81.97460938 C28.18753038 81.93657431 32.59229419 81.94007651 37 82 C37 80.02 37 78.04 37 76 C34.09399739 74.74335022 32.20395416 74 29 74 C23.26331138 69.77296628 21.43394856 63.4939819 19 57 C16.05637725 59.24160745 14.04252558 60.93488271 12 64.0625 C9.85660458 67.21061203 8.26282462 68.16963497 5 70 C4.236875 70.9075 3.47375 71.815 2.6875 72.75 C0 75 0 75 -3.8125 75 C-5.21848353 74.71247241 -6.61548432 74.37759519 -8 74 C-8.66386719 73.82082031 -9.32773438 73.64164063 -10.01171875 73.45703125 C-23.12956051 69.20468569 -31.78694696 58.00878018 -38.43359375 46.5625 C-38.95050781 45.716875 -39.46742188 44.87125 -40 44 C-40.33 44 -40.66 44 -41 44 Z M-69 95 C-71.50294893 101.2935421 -70.76280876 110.65498605 -69.375 117.1875 C-67.47393322 121.07604569 -66.08523735 121.51014071 -62 123 C-57.82712769 123.43441053 -53.69191562 123.41861531 -49.5 123.375 C-48.38496094 123.38660156 -47.26992187 123.39820313 -46.12109375 123.41015625 C-38.09754461 123.43846385 -38.09754461 123.43846385 -31 120 C-28.32861372 115.65045002 -28.63248605 111.46325122 -28.625 106.5 C-28.58826172 105.21802734 -28.58826172 105.21802734 -28.55078125 103.91015625 C-28.54691406 103.08386719 -28.54304688 102.25757813 -28.5390625 101.40625 C-28.52673584 100.28186523 -28.52673584 100.28186523 -28.51416016 99.13476562 C-29.23147109 95.98292303 -30.38431343 94.87952585 -33 93 C-35.64612049 92.62582393 -37.86572873 92.48425689 -40.50390625 92.5390625 C-41.22360092 92.53997894 -41.94329559 92.54089539 -42.68479919 92.5418396 C-44.20196146 92.5478669 -45.71911231 92.56358705 -47.23608398 92.58837891 C-49.55822561 92.62493272 -51.87877229 92.62939782 -54.20117188 92.62890625 C-55.67709712 92.63873648 -57.15301157 92.65039307 -58.62890625 92.6640625 C-59.32270889 92.66628815 -60.01651154 92.66851379 -60.7313385 92.67080688 C-64.36474897 92.74240201 -65.89125745 92.92750497 -69 95 Z M4 94 C1.22462537 97.64790043 1.66881083 102.06049737 1.6875 106.4375 C1.67138672 107.18837891 1.65527344 107.93925781 1.63867188 108.71289062 C1.63461619 113.32420657 2.09549818 116.21920079 5 120 C9.6472393 124.6472393 17.30387713 123.22216734 23.4375 123.25 C25.13616211 123.2809375 25.13616211 123.2809375 26.86914062 123.3125 C28.50979492 123.32023437 28.50979492 123.32023437 30.18359375 123.328125 C31.17931396 123.3374707 32.17503418 123.34681641 33.20092773 123.35644531 C37.42292688 122.81879867 40.03367762 120.96632238 43 118 C43.47898442 114.37461122 43.3703783 110.7159522 43.375 107.0625 C43.41173828 105.53979492 43.41173828 105.53979492 43.44921875 103.98632812 C43.45308594 103.01244141 43.45695312 102.03855469 43.4609375 101.03515625 C43.47326416 99.69529663 43.47326416 99.69529663 43.48583984 98.32836914 C43.18013766 95.9086919 43.18013766 95.9086919 41.42651367 94.20581055 C38.08360553 92.54461492 35.44020933 92.64510535 31.71484375 92.671875 C31.01734512 92.67374817 30.3198465 92.67562134 29.60121155 92.67755127 C28.13114621 92.68425615 26.66109825 92.69813966 25.19116211 92.71875 C22.9417257 92.74994141 20.69299078 92.75972755 18.44335938 92.765625 C11.11443488 92.61473045 11.11443488 92.61473045 4 94 Z " fill="#000000" transform="translate(263,86)"/>
<path d="M0 0 C3.01125 -0.061875 6.0225 -0.12375 9.125 -0.1875 C10.06230957 -0.21481201 10.99961914 -0.24212402 11.96533203 -0.27026367 C17.05823607 -0.32070457 20.61308502 0.10575737 25 3 C26.35700647 5.71401294 26.1123861 7.84846316 26.09765625 10.8828125 C26.09443359 12.04941406 26.09121094 13.21601563 26.08789062 14.41796875 C26.07951172 15.64128906 26.07113281 16.86460937 26.0625 18.125 C26.05798828 19.35605469 26.05347656 20.58710938 26.04882812 21.85546875 C26.0370133 24.90369392 26.02054028 27.95182314 26 31 C23.69 31 21.38 31 19 31 C19 27.37 19 23.74 19 20 C15.04 20 11.08 20 7 20 C7 23.63 7 27.26 7 31 C4.69 31 2.38 31 0 31 C0 20.77 0 10.54 0 0 Z M7 7 C7 8.65 7 10.3 7 12 C10.63 12 14.26 12 18 12 C18.33 10.68 18.66 9.36 19 8 C16.47524538 6.73762269 14.68799534 6.90143596 11.875 6.9375 C10.96492187 6.94652344 10.05484375 6.95554688 9.1171875 6.96484375 C8.06917969 6.98224609 8.06917969 6.98224609 7 7 Z " fill="#010101" transform="translate(163,239)"/>
<path d="M0 0 C1.02867187 -0.01417969 2.05734375 -0.02835938 3.1171875 -0.04296875 C6.26596072 0.19830089 8.36262672 0.66193845 11.125 2.1875 C13.28459904 5.46382677 13.35976046 8.18097456 13.3203125 12.046875 C13.31386719 13.16191406 13.30742187 14.27695313 13.30078125 15.42578125 C13.28402344 16.58464844 13.26726562 17.74351562 13.25 18.9375 C13.24097656 20.11183594 13.23195313 21.28617187 13.22265625 22.49609375 C13.19910063 25.39343536 13.16620652 28.29036441 13.125 31.1875 C10.815 31.1875 8.505 31.1875 6.125 31.1875 C6.125 27.5575 6.125 23.9275 6.125 20.1875 C3.6809375 20.2184375 3.6809375 20.2184375 1.1875 20.25 C-0.49999341 20.27136068 -2.18891034 20.25955511 -3.875 20.1875 C-4.875 19.1875 -4.875 19.1875 -4.9375 15.625 C-4.916875 14.490625 -4.89625 13.35625 -4.875 12.1875 C-1.245 12.1875 2.385 12.1875 6.125 12.1875 C6.125 10.8675 6.125 9.5475 6.125 8.1875 C4.47925434 8.16061849 2.83338587 8.14115877 1.1875 8.125 C-0.18728516 8.10759766 -0.18728516 8.10759766 -1.58984375 8.08984375 C-3.84093327 7.92800951 -3.84093327 7.92800951 -4.875 9.1875 C-5.03214654 10.82006758 -5.12585414 12.45885338 -5.19140625 14.09765625 C-5.23330078 15.08701172 -5.27519531 16.07636719 -5.31835938 17.09570312 C-5.35767578 18.13662109 -5.39699219 19.17753906 -5.4375 20.25 C-5.50227539 21.81717773 -5.50227539 21.81717773 -5.56835938 23.41601562 C-5.67481225 26.00636884 -5.7768276 28.59682186 -5.875 31.1875 C-8.185 31.1875 -10.495 31.1875 -12.875 31.1875 C-12.99111395 26.93772954 -13.06222349 22.68836663 -13.125 18.4375 C-13.15851563 17.2309375 -13.19203125 16.024375 -13.2265625 14.78125 C-13.23945313 13.62109375 -13.25234375 12.4609375 -13.265625 11.265625 C-13.28657227 10.19731445 -13.30751953 9.12900391 -13.32910156 8.02832031 C-12.76236922 4.48289151 -11.67385061 3.3646646 -8.875 1.1875 C-5.69954097 0.12901366 -3.33491204 0.02079122 0 0 Z " fill="#010101" transform="translate(311.875,238.8125)"/>
<path d="M0 0 C0.7321875 0.00064453 1.464375 0.00128906 2.21875 0.00195312 C7.609375 0.046875 7.609375 0.046875 8.75 1.1875 C8.75 3.1675 8.75 5.1475 8.75 7.1875 C0.335 7.6825 0.335 7.6825 -8.25 8.1875 C-7.92 9.1775 -7.59 10.1675 -7.25 11.1875 C-6.43015625 11.23648438 -5.6103125 11.28546875 -4.765625 11.3359375 C-3.68796875 11.41070312 -2.6103125 11.48546875 -1.5 11.5625 C-0.43265625 11.63210937 0.6346875 11.70171875 1.734375 11.7734375 C4.60576378 12.16769554 6.35291057 12.60023808 8.75 14.1875 C10.76471597 17.20957395 11.08719034 18.10476699 11.1875 21.5625 C11.22746094 22.31273437 11.26742187 23.06296875 11.30859375 23.8359375 C10.41073178 27.61574804 8.89491231 28.93719307 5.75 31.1875 C2.28829217 31.78497088 -1.06303576 31.66075277 -4.5625 31.5 C-5.49384766 31.47744141 -6.42519531 31.45488281 -7.38476562 31.43164062 C-9.6748396 31.37292078 -11.96157875 31.29086858 -14.25 31.1875 C-14.25 28.8775 -14.25 26.5675 -14.25 24.1875 C-8.31 23.8575 -2.37 23.5275 3.75 23.1875 C3.75 22.1975 3.75 21.2075 3.75 20.1875 C3.10933594 20.22230469 2.46867187 20.25710938 1.80859375 20.29296875 C-4.06358478 20.47674781 -8.09849625 20.08522086 -13.25 17.1875 C-15.73278896 13.46331656 -15.65910371 10.49614549 -15.25 6.1875 C-14.5625 3.8125 -14.5625 3.8125 -13.25 2.1875 C-8.92833128 -0.0917922 -4.77114593 -0.08152138 0 0 Z " fill="#010101" transform="translate(221.25,238.8125)"/>
<path d="M0 0 C0.74958984 0.00451172 1.49917969 0.00902344 2.27148438 0.01367188 C4.11852383 0.02543646 5.96552213 0.04337135 7.8125 0.0625 C7.8125 2.3725 7.8125 4.6825 7.8125 7.0625 C-0.1075 7.5575 -0.1075 7.5575 -8.1875 8.0625 C-7.8575 9.0525 -7.5275 10.0425 -7.1875 11.0625 C-6.37925781 11.08828125 -5.57101562 11.1140625 -4.73828125 11.140625 C4.0645145 11.60784214 4.0645145 11.60784214 8 14 C11.21694648 17.66066324 11.06173206 20.24401351 10.8125 25.0625 C9.95105821 27.7186122 9.40046347 28.70534236 7.01635742 30.15356445 C4.59519372 31.15212349 2.90878353 31.30690944 0.30078125 31.29296875 C-0.53904297 31.29103516 -1.37886719 31.28910156 -2.24414062 31.28710938 C-3.54641602 31.26874023 -3.54641602 31.26874023 -4.875 31.25 C-5.75478516 31.24935547 -6.63457031 31.24871094 -7.54101562 31.24804688 C-14.04709943 31.20290057 -14.04709943 31.20290057 -15.1875 30.0625 C-15.3125 27.5625 -15.3125 27.5625 -15.1875 25.0625 C-13.67328999 23.54828999 -12.26277232 23.84940144 -10.15234375 23.74609375 C-9.34345703 23.70419922 -8.53457031 23.66230469 -7.70117188 23.61914062 C-6.85103516 23.57982422 -6.00089844 23.54050781 -5.125 23.5 C-4.27099609 23.45681641 -3.41699219 23.41363281 -2.53710938 23.36914062 C-0.42077963 23.26273298 1.69583813 23.16208269 3.8125 23.0625 C3.8125 22.0725 3.8125 21.0825 3.8125 20.0625 C3.17183594 20.09730469 2.53117187 20.13210938 1.87109375 20.16796875 C-4.02085972 20.3523667 -7.98678797 19.87955235 -13.1875 17.0625 C-15.67790942 14.57209058 -15.51141014 13.63095643 -15.5625 10.1875 C-15.49653437 6.67102441 -15.4469706 5.42933774 -13.375 2.5 C-9.06408792 -0.33288508 -4.9654992 -0.05637685 0 0 Z " fill="#010101" transform="translate(357.1875,238.9375)"/>
<path d="M0 0 C2.31 0 4.62 0 7 0 C7.33 3.96 7.66 7.92 8 12 C11.63 12 15.26 12 19 12 C19 8.04 19 4.08 19 0 C21.31 0 23.62 0 26 0 C26 10.23 26 20.46 26 31 C23.69 31 21.38 31 19 31 C19 27.37 19 23.74 19 20 C16.5559375 20.0309375 16.5559375 20.0309375 14.0625 20.0625 C12.37500659 20.08386068 10.68608966 20.07205511 9 20 C8.67 19.67 8.34 19.34 8 19 C7.67 22.96 7.34 26.92 7 31 C4.69 31 2.38 31 0 31 C0 20.77 0 10.54 0 0 Z " fill="#010101" transform="translate(237,239)"/>
<path d="M0 0 C1.5159375 -0.00773438 1.5159375 -0.00773438 3.0625 -0.015625 C6.15763792 0.26425449 8.27582889 0.75548946 11 2.25 C13.16036652 5.52560549 13.23475641 8.24387198 13.1953125 12.109375 C13.18886719 13.22441406 13.18242187 14.33945313 13.17578125 15.48828125 C13.15902344 16.64714844 13.14226562 17.80601562 13.125 19 C13.11597656 20.17433594 13.10695313 21.34867187 13.09765625 22.55859375 C13.07410063 25.45593536 13.04120652 28.35286441 13 31.25 C10.69 31.25 8.38 31.25 6 31.25 C6 23.66 6 16.07 6 8.25 C2.04 8.25 -1.92 8.25 -6 8.25 C-6 15.84 -6 23.43 -6 31.25 C-8.31 31.25 -10.62 31.25 -13 31.25 C-13.0580772 27.16672643 -13.09362249 23.08355917 -13.125 19 C-13.14175781 17.84113281 -13.15851563 16.68226563 -13.17578125 15.48828125 C-13.18222656 14.37324219 -13.18867188 13.25820312 -13.1953125 12.109375 C-13.20578613 11.08295898 -13.21625977 10.05654297 -13.22705078 8.99902344 C-12.99514152 6.19117577 -12.54202809 4.58806423 -11 2.25 C-7.33694473 0.24040718 -4.13353039 -0.02108944 0 0 Z " fill="#020202" transform="translate(281,238.75)"/>
<path d="M0 0 C3.85870232 0.57526525 5.89498568 2.35772398 8.75 4.9375 C9.54921875 5.64777344 10.3484375 6.35804688 11.171875 7.08984375 C13 9 13 9 13 11 C13.53109375 11.22042969 14.0621875 11.44085938 14.609375 11.66796875 C17.85466678 13.47621139 20.50518218 15.840194 23.25 18.3125 C23.80429687 18.78623047 24.35859375 19.25996094 24.9296875 19.74804688 C27.33488096 21.9133134 28.86629926 23.41831494 29.6015625 26.6171875 C28.81720948 29.72404039 27.59009205 30.79919528 25.125 32.8125 C24.04605469 33.71935547 24.04605469 33.71935547 22.9453125 34.64453125 C21 36 21 36 19 36 C18.77957031 36.5671875 18.55914062 37.134375 18.33203125 37.71875 C16.58442608 40.71171604 14.4016968 42.3550867 11.6875 44.5 C10.74261719 45.2528125 9.79773438 46.005625 8.82421875 46.78125 C7.89222656 47.5134375 6.96023438 48.245625 6 49 C5.10539062 49.75796875 4.21078125 50.5159375 3.2890625 51.296875 C1 53 1 53 -1.3125 52.75 C-1.869375 52.5025 -2.42625 52.255 -3 52 C-1.62105135 48.86442612 -0.05846692 46.85925459 2.44921875 44.5390625 C3.13306641 43.90226562 3.81691406 43.26546875 4.52148438 42.609375 C5.23626953 41.95453125 5.95105469 41.2996875 6.6875 40.625 C7.73067383 39.65433594 7.73067383 39.65433594 8.79492188 38.6640625 C13.10903858 34.66816729 17.51227657 30.79956662 22 27 C17.72424792 21.82793344 13.19866881 17.21324721 8.25 12.6875 C6.92168691 11.46244349 5.59355364 10.23719198 4.265625 9.01171875 C3.39599121 8.21447388 3.39599121 8.21447388 2.50878906 7.40112305 C1.31519797 6.29270569 0.15179181 5.15179181 -1 4 C-0.625 1.875 -0.625 1.875 0 0 Z " fill="#010101" transform="translate(329,164)"/>
<path d="M0 0 C-0.0600566 3.06288675 -0.3668357 5.25712571 -2.39208984 7.63330078 C-4.27268438 9.3494661 -6.20406345 10.96635059 -8.1875 12.5625 C-8.84814453 13.11357422 -9.50878906 13.66464844 -10.18945312 14.23242188 C-12.11551827 15.83525792 -14.05672895 17.41810388 -16 19 C-18.00384667 20.66210538 -20.0017488 22.33116502 -22 24 C-21.81171228 26.44480079 -21.81171228 26.44480079 -21 29 C-19.67920656 29.69117792 -18.34387323 30.35484347 -17 31 C-15.359375 32.48046875 -15.359375 32.48046875 -13.75 34.1875 C-11.1999444 36.81981546 -8.58592402 39.29109637 -5.8125 41.6875 C-4.81669922 42.55375 -4.81669922 42.55375 -3.80078125 43.4375 C-3.20652344 43.953125 -2.61226562 44.46875 -2 45 C0.5 47.1875 0.5 47.1875 2 49 C2 50.32 2 51.64 2 53 C-2.9098861 52.85121557 -4.94619217 50.32429398 -8.11328125 46.96484375 C-11.78129027 43.1449503 -15.88940592 39.793147 -19.921875 36.3671875 C-21.62278909 34.92068364 -23.3119926 33.46151526 -25 32 C-25.804375 31.319375 -26.60875 30.63875 -27.4375 29.9375 C-29 28 -29 28 -29.50390625 25.77734375 C-28.71212311 21.41332968 -25.7592364 19.44529451 -22.5 16.625 C-21.8608667 16.05281738 -21.2217334 15.48063477 -20.56323242 14.89111328 C-18.72060992 13.24674024 -16.86314893 11.62103893 -15 10 C-13.71029297 8.86304688 -13.71029297 8.86304688 -12.39453125 7.703125 C-11.11971579 6.58377484 -9.83966374 5.47031087 -8.55078125 4.3671875 C-6.94779289 3.0152063 -6.94779289 3.0152063 -5.54296875 1.3203125 C-4 0 -4 0 0 0 Z " fill="#010101" transform="translate(171,166)"/>
<path d="M0 0 C2.2520913 1.58480499 2.85176575 2.54100822 3.6875 5.1875 C4.34632353 12.10514706 4.34632353 12.10514706 1.9375 16.0625 C-1.72673117 19.52316277 -3.07648136 20.20711934 -8.25 20.125 C-12.5468295 19.46764922 -14.58165775 17.58036462 -17.3125 14.1875 C-18.86274464 11.08701072 -18.60242015 8.60855782 -18.3125 5.1875 C-16.51050549 2.18417582 -15.0013808 0.5971048 -12 -1.1875 C-7.74293391 -2.17751537 -4.08168518 -1.4341056 0 0 Z M-13.3125 3.1875 C-13.3125 4.5075 -13.3125 5.8275 -13.3125 7.1875 C-11.9925 6.8575 -10.6725 6.5275 -9.3125 6.1875 C-9.6425 5.1975 -9.9725 4.2075 -10.3125 3.1875 C-11.3025 3.1875 -12.2925 3.1875 -13.3125 3.1875 Z " fill="#010101" transform="translate(290.3125,184.8125)"/>
<path d="M0 0 C2.30948552 1.81959465 2.93869333 2.72474866 3.3359375 5.61328125 C3.53222622 10.10527315 3.57732633 11.97469305 0.6875 15.625 C-3.40784631 18.74526386 -5.74880583 19.14386942 -10.9375 18.625 C-14.13636977 16.72937347 -16.29910051 15.27872633 -17.671875 11.72265625 C-18.44242702 7.70808023 -18.08541141 5.91554028 -16.1875 2.1875 C-11.9582057 -2.62919629 -5.5385233 -2.59250027 0 0 Z M-8.9375 0.625 C-9.5975 1.945 -10.2575 3.265 -10.9375 4.625 C-9.6175 4.955 -8.2975 5.285 -6.9375 5.625 C-6.6075 4.305 -6.2775 2.985 -5.9375 1.625 C-6.9275 1.295 -7.9175 0.965 -8.9375 0.625 Z " fill="#010101" transform="translate(221.9375,185.375)"/>
<path d="M0 0 C2.33294775 -0.04241723 4.66702567 -0.04092937 7 0 C8 1 8 1 8.0625 4.08984375 C8.02087562 6.65234444 7.97920904 9.21484444 7.9375 11.77734375 C7.76697855 14.89211236 7.76697855 14.89211236 9 17 C9.07116382 19.37402501 9.08409085 21.75000677 9.0625 24.125 C9.05347656 25.40632813 9.04445312 26.68765625 9.03515625 28.0078125 C9.02355469 28.99523437 9.01195312 29.98265625 9 31 C6.69 31 4.38 31 2 31 C2 27.37 2 23.74 2 20 C-0.4440625 20.0309375 -0.4440625 20.0309375 -2.9375 20.0625 C-4.62499341 20.08386068 -6.31391034 20.07205511 -8 20 C-9 19 -9 19 -9.0625 15.4375 C-9.041875 14.303125 -9.02125 13.16875 -9 12 C-4.545 11.505 -4.545 11.505 0 11 C0 7.37 0 3.74 0 0 Z " fill="#010101" transform="translate(149,239)"/>
<path d="M0 0 C2.31 0 4.62 0 7 0 C7 10.23 7 20.46 7 31 C4.69 31 2.38 31 0 31 C0 20.77 0 10.54 0 0 Z " fill="#010101" transform="translate(194,239)"/>
<path d="M0 0 C2.31 0 4.62 0 7 0 C7 10.23 7 20.46 7 31 C4.69 31 2.38 31 0 31 C0 20.77 0 10.54 0 0 Z " fill="#000000" transform="translate(132,239)"/>
<path d="M0 0 C5 0 5 0 6.58203125 1.3125 C7.72135417 2.875 8.86067708 4.4375 10 6 C10.33 4.02 10.66 2.04 11 0 C12.32 0 13.64 0 15 0 C15 5.28 15 10.56 15 16 C8.87232474 14.77446495 8.51818479 13.72441958 5 9 C4.67 11.31 4.34 13.62 4 16 C2.68 16 1.36 16 0 16 C0 10.72 0 5.44 0 0 Z " fill="#020202" transform="translate(227,283)"/>
<path d="M0 0 C0.99 0.66 1.98 1.32 3 2 C2.67 2.99 2.34 3.98 2 5 C0.865625 4.979375 -0.26875 4.95875 -1.4375 4.9375 C-4.81575674 4.58422523 -4.81575674 4.58422523 -6 6 C-6.04080783 7.99958364 -6.04254356 10.00045254 -6 12 C-4.35 12 -2.7 12 -1 12 C-1.99 11.34 -2.98 10.68 -4 10 C-4 9.01 -4 8.02 -4 7 C-1.36 7 1.28 7 4 7 C5.21744727 10.65234182 4.64202228 11.62953322 3 15 C1 17 1 17 -2.875 17.375 C-5.76344993 17.27521718 -6.92985799 17.04033165 -9.5 15.5625 C-11.68330476 11.8326877 -11.66992163 8.22985401 -11 4 C-8.0167091 -0.47493635 -5.10001107 -0.31875069 0 0 Z " fill="#020202" transform="translate(340,282)"/>
<path d="M0 0 C2.8293078 2.8293078 2.73345379 5.06844341 3 9 C2.08324478 12.17338346 1.33659163 13.66340837 -1 16 C-5.87833311 16.55980872 -7.91563693 16.74549961 -12 13.9375 C-14.49760663 10.26914026 -14.6338947 8.35802608 -14 4 C-10.61696164 -2.12168846 -6.07536735 -1.06077843 0 0 Z M-8.875 4.125 C-10.26066212 6.0140578 -10.26066212 6.0140578 -9.75 8.625 C-9.22254355 10.9312407 -9.22254355 10.9312407 -8 12 C-5.54207971 12.33343551 -5.54207971 12.33343551 -3 12 C-0.66608797 9.21885944 -0.66608797 9.21885944 -1.375 6.3125 C-1.58125 5.549375 -1.7875 4.78625 -2 4 C-5.54966644 2.86559731 -5.54966644 2.86559731 -8.875 4.125 Z " fill="#020202" transform="translate(266,283)"/>
<path d="M0 0 C0.69222656 0.06703125 1.38445312 0.1340625 2.09765625 0.203125 C3.9375 0.75 3.9375 0.75 5.9375 3.75 C6.60742163 7.97985401 6.62080476 11.5826877 4.4375 15.3125 C0.8872563 17.35389013 -2.06535328 17.52813307 -6.0625 16.75 C-8.5625 15.3125 -8.5625 15.3125 -10.0625 12.75 C-10.54457192 9.68025468 -10.68632717 6.80169509 -10.0625 3.75 C-7.27956663 0.18816982 -4.36974642 -0.49006502 0 0 Z M-4.0625 3.75 C-6.39528733 5.64107141 -6.39528733 5.64107141 -6.25 8.8125 C-6.39437793 11.63833136 -6.39437793 11.63833136 -5.0625 12.75 C-2.0625 12.91666667 -2.0625 12.91666667 0.9375 12.75 C2.26937793 11.63833136 2.26937793 11.63833136 2.125 8.8125 C2.27028733 5.64107141 2.27028733 5.64107141 -0.0625 3.75 C-1.3825 3.75 -2.7025 3.75 -4.0625 3.75 Z " fill="#020202" transform="translate(312.0625,282.25)"/>
<path d="M0 0 C4.29 0 8.58 0 13 0 C13 0.99 13 1.98 13 3 C10.36 3 7.72 3 5 3 C5 3.99 5 4.98 5 6 C6.98 6 8.96 6 11 6 C11 7.32 11 8.64 11 10 C9.02 10 7.04 10 5 10 C5 10.66 5 11.32 5 12 C7.64 12 10.28 12 13 12 C13 13.32 13 14.64 13 16 C11.02090602 16.02686553 9.04171029 16.04633375 7.0625 16.0625 C5.96035156 16.07410156 4.85820312 16.08570313 3.72265625 16.09765625 C1 16 1 16 0 15 C-0.07313567 12.46950598 -0.09247527 9.96695163 -0.0625 7.4375 C-0.05798828 6.72658203 -0.05347656 6.01566406 -0.04882812 5.28320312 C-0.03700864 3.52209987 -0.01907263 1.76103964 0 0 Z " fill="#010101" transform="translate(153,283)"/>
<path d="M0 0 C1.32 0 2.64 0 4 0 C4 1.98 4 3.96 4 6 C6.31 6 8.62 6 11 6 C11 4.02 11 2.04 11 0 C12.32 0 13.64 0 15 0 C15 5.28 15 10.56 15 16 C13.68 16 12.36 16 11 16 C11 14.02 11 12.04 11 10 C8.69 10 6.38 10 4 10 C4 11.98 4 13.96 4 16 C2.68 16 1.36 16 0 16 C0 10.72 0 5.44 0 0 Z " fill="#020202" transform="translate(202,283)"/>
<path d="M0 0 C0.33 0.66 0.66 1.32 1 2 C0.67 2.66 0.34 3.32 0 4 C-2.97 4 -5.94 4 -9 4 C-8.67 6.31 -8.34 8.62 -8 11 C-5.03 11 -2.06 11 1 11 C1 11.99 1 12.98 1 14 C-2.75047482 16.50031654 -4.55856266 16.53603554 -9 16 C-12 14.0625 -12 14.0625 -14 11 C-14.37332792 7.77014782 -14.05772506 5.07272084 -13 2 C-9.06098478 -2.05837932 -5.12095934 -1.10954119 0 0 Z " fill="#020202" transform="translate(190,283)"/>
<path d="M0 0 C2.25891996 1.49443832 4.02400724 3.12039713 6 5 C5.67 5.99 5.34 6.98 5 8 C-0.79274611 7.05699482 -0.79274611 7.05699482 -3.5 6.3125 C-6.76162647 5.90479669 -8.92634548 6.91141402 -12 8 C-14.875 8.125 -14.875 8.125 -17 8 C-16.875 6.25 -16.875 6.25 -16 4 C-10.41649139 -0.24832177 -6.90885047 -1.63938825 0 0 Z " fill="#010101" transform="translate(286,157)"/>
<path d="M0 0 C0.845625 0.721875 1.69125 1.44375 2.5625 2.1875 C2.5625 3.5075 2.5625 4.8275 2.5625 6.1875 C-0.47814169 5.68072639 -3.49129146 5.17542437 -6.5 4.5 C-9.85591843 4.1429874 -11.3915947 4.85979769 -14.4375 6.1875 C-17.25 6.3125 -17.25 6.3125 -19.4375 6.1875 C-19.7675 5.5275 -20.0975 4.8675 -20.4375 4.1875 C-14.01019929 -2.7907122 -8.78312708 -4.63110337 0 0 Z " fill="#010101" transform="translate(228.4375,158.8125)"/>
<path d="M0 0 C4.55384615 -0.36923077 4.55384615 -0.36923077 6.8125 1.5 C7.204375 1.995 7.59625 2.49 8 3 C8.66 2.01 9.32 1.02 10 0 C12.625 -0.1875 12.625 -0.1875 15 0 C13.87548273 2.9719385 12.77706209 5.33440687 11 8 C10.60612212 10.32387947 10.26513915 12.65793749 10 15 C8.68 15.33 7.36 15.66 6 16 C5.85304688 15.11248047 5.85304688 15.11248047 5.703125 14.20703125 C4.73033568 9.06634287 3.5992157 5.95913727 0 2 C0 1.34 0 0.68 0 0 Z " fill="#020202" transform="translate(355,283)"/>
<path d="M0 0 C4.29 0 8.58 0 13 0 C13 0.99 13 1.98 13 3 C11.68 3 10.36 3 9 3 C9 6.96 9 10.92 9 15 C7.68 15.33 6.36 15.66 5 16 C4 15 4 15 3.90234375 12.27734375 C3.91394531 11.17519531 3.92554688 10.07304687 3.9375 8.9375 C3.94652344 7.83277344 3.95554688 6.72804688 3.96484375 5.58984375 C3.97644531 4.73519531 3.98804688 3.88054687 4 3 C2.68 3 1.36 3 0 3 C0 2.01 0 1.02 0 0 Z " fill="#020202" transform="translate(130,283)"/>
<path d="M0 0 C1.32 0 2.64 0 4 0 C4 3.96 4 7.92 4 12 C6.97 12 9.94 12 13 12 C12.67 13.32 12.34 14.64 12 16 C8.04 16 4.08 16 0 16 C0 10.72 0 5.44 0 0 Z " fill="#020202" transform="translate(279,283)"/>
<path d="M0 0 C2.31 0 4.62 0 7 0 C6.67 3.3 6.34 6.6 6 10 C4.02 10 2.04 10 0 10 C0 6.7 0 3.4 0 0 Z " fill="#010101" transform="translate(330,237)"/>
</svg>
